<svg width="24" height="24" viewBox="0 0 24 24" fill="none" xmlns="http://www.w3.org/2000/svg">
<path fill-rule="evenodd" clip-rule="evenodd" d="M12 24C18.6274 24 24 18.6274 24 12C24 5.37258 18.6274 0 12 0C5.37259 0 0 5.37258 0 12C0 18.6274 5.37259 24 12 24ZM11 13V3H13V13H11ZM16.41 6.59L17.83 5.17C19.77 6.82 21 9.26 21 12C21 16.97 16.97 21 12 21C7.03 21 3 16.97 3 12C3 9.26 4.23001 6.82 6.17001 5.17L7.57999 6.58C6.01001 7.86 5 9.81 5 12C5 15.87 8.13 19 12 19C15.87 19 19 15.87 19 12C19 9.81 17.99 7.86 16.41 6.59Z" fill="#fff"/>
</svg>
